<?xml version="1.0" encoding="utf-8"?>
<!-- Generator: Adobe Illustrator 22.0.0, SVG Export Plug-In . SVG Version: 6.00 Build 0)  -->
<svg version="1.1" id="Layer_1" xmlns="http://www.w3.org/2000/svg" xmlns:xlink="http://www.w3.org/1999/xlink" x="0px" y="0px"
	 viewBox="0 0 32 32" style="enable-background:new 0 0 32 32;" xml:space="preserve">
<style type="text/css">
	.st0{fill:#FFFFFF;}
</style>
<path class="st0" d="M16.5,21.3c0-0.2,0-0.3-0.1-0.4c-0.1-0.1-0.1-0.3-0.1-0.4s-0.1-0.2-0.2-0.4c-0.1-0.1-0.2-0.2-0.2-0.3
	c-0.1-0.1-0.2-0.2-0.3-0.3c-0.1-0.1-0.2-0.2-0.3-0.3s-0.2-0.2-0.3-0.3s-0.3-0.2-0.3-0.2c-0.1,0-0.2-0.1-0.3-0.2
	c-0.2-0.1-0.3-0.2-0.3-0.2c-0.1,0-0.3,0-0.5,0c-0.4,0-0.8,0-1.1,0.1c-0.4,0.1-0.8,0.1-1.1,0.3c-0.4,0.1-0.7,0.3-1,0.5
	c-0.3,0.2-0.5,0.4-0.7,0.8c-0.2,0.3-0.3,0.7-0.3,1.1c0,0.5,0.1,0.9,0.4,1.3c0.3,0.4,0.6,0.7,1,0.9c0.4,0.2,0.8,0.4,1.3,0.5
	s0.9,0.2,1.3,0.2c0.4,0,0.8-0.1,1.2-0.1c0.4-0.1,0.7-0.2,1-0.4c0.3-0.2,0.6-0.4,0.8-0.8C16.4,22.2,16.5,21.8,16.5,21.3z M15.2,12.3
	c0-0.4-0.1-0.9-0.2-1.4c-0.1-0.5-0.3-0.9-0.5-1.4c-0.2-0.4-0.5-0.8-0.9-1.1S12.9,8,12.5,8c-0.7,0-1.1,0.2-1.5,0.7
	c-0.4,0.5-0.5,1-0.5,1.7c0,0.3,0.1,0.7,0.1,1c0.1,0.4,0.2,0.7,0.4,1.1c0.2,0.4,0.4,0.7,0.6,1c0.2,0.3,0.5,0.5,0.8,0.7s0.7,0.3,1,0.3
	c0.7,0,1.1-0.2,1.5-0.7C15.1,13.5,15.2,13,15.2,12.3z M13.9,7.3h4.6L17,8.2h-1.4c0.5,0.3,0.9,0.8,1.1,1.3s0.4,1.1,0.4,1.7
	c0,0.5-0.1,1-0.2,1.4s-0.4,0.7-0.6,1c-0.2,0.2-0.4,0.5-0.7,0.7c-0.2,0.2-0.4,0.4-0.6,0.7s-0.2,0.4-0.2,0.7c0,0.2,0.1,0.4,0.2,0.5
	c0.1,0.2,0.3,0.3,0.4,0.5c0.2,0.2,0.4,0.3,0.6,0.5c0.2,0.2,0.4,0.4,0.7,0.6c0.2,0.2,0.4,0.4,0.6,0.7c0.2,0.3,0.3,0.5,0.4,0.9
	s0.2,0.7,0.2,1.1c0,1.1-0.5,2.1-1.5,2.9c-1,0.9-2.5,1.4-4.4,1.4c-0.4,0-0.8-0.1-1.3-0.1s-0.9-0.2-1.3-0.3c-0.4-0.2-0.8-0.4-1.1-0.6
	c-0.3-0.2-0.6-0.5-0.8-0.9c-0.2-0.3-0.3-0.7-0.3-1.2c0-0.4,0.1-0.9,0.4-1.4c0.2-0.4,0.5-0.8,1-1.1s1-0.6,1.5-0.8s1.1-0.3,1.6-0.4
	c0.5-0.1,1-0.1,1.6-0.2c-0.4-0.6-0.7-1.1-0.7-1.6c0-0.1,0-0.2,0-0.3c0-0.1,0.1-0.2,0.1-0.2c0-0.1,0.1-0.1,0.1-0.2
	c0.1-0.1,0.1-0.2,0.1-0.2c-0.3,0.1-0.5,0.1-0.7,0.1c-1,0-1.9-0.3-2.7-1c-0.8-0.7-1.1-1.5-1.1-2.6c0-1,0.3-1.9,1-2.6
	c0.7-0.7,1.5-1.2,2.5-1.4C12.6,7.4,13.2,7.3,13.9,7.3z M24.7,10v1.4H22V14h-1.4v-2.7H18V10h2.7V7.3H22V10H24.7z"/>
</svg>
