<?xml version="1.0" encoding="utf-8"?>
<!-- Generator: Adobe Illustrator 22.0.0, SVG Export Plug-In . SVG Version: 6.00 Build 0)  -->
<svg version="1.1" id="Layer_1" xmlns="http://www.w3.org/2000/svg" xmlns:xlink="http://www.w3.org/1999/xlink" x="0px" y="0px"
	 viewBox="0 0 32 32" style="enable-background:new 0 0 32 32;" xml:space="preserve">
<style type="text/css">
	.st0{fill:#FFFFFF;}
</style>
<path class="st0" d="M24.8,10.5c-0.7,0.3-1.3,0.5-2.1,0.5c0.8-0.4,1.3-1.2,1.6-2C23.6,9.6,22.8,9.8,22,10c-0.6-0.7-1.6-1.2-2.6-1.2
	c-2,0-3.6,1.6-3.6,3.6c0,0.3,0.1,0.5,0.1,0.8c-3-0.2-5.6-1.6-7.5-3.8C8.1,10.1,8,10.7,8,11.3c0,1.3,0.7,2.4,1.6,3
	c-0.6,0-1.2-0.2-1.6-0.4v0.1c0,1.8,1.3,3.2,2.9,3.5c-0.3,0.1-0.6,0.1-0.9,0.1c-0.2,0-0.4,0-0.7-0.1C9.7,18.9,11,20,12.6,20
	c-1.2,1-2.8,1.5-4.5,1.5c-0.3,0-0.6,0-0.9-0.1c1.6,1,3.5,1.6,5.5,1.6c6.6,0,10.3-5.5,10.3-10.3c0-0.2,0-0.3,0-0.4
	C23.7,11.9,24.3,11.3,24.8,10.5z"/>
</svg>
