<svg xmlns="http://www.w3.org/2000/svg" viewBox="0 0 32 32"><path d="M16.5 21.3c0-.2 0-.3-.1-.4-.1-.1-.1-.3-.1-.4s-.1-.2-.2-.4c-.1-.1-.2-.2-.2-.3l-.3-.3-.3-.3-.3-.3c-.1-.1-.3-.2-.3-.2-.1 0-.2-.1-.3-.2-.2-.1-.3-.2-.3-.2h-.5c-.4 0-.8 0-1.1.1-.4.1-.8.1-1.1.3-.4.1-.7.3-1 .5-.3.2-.5.4-.7.8-.2.3-.3.7-.3 1.1 0 .5.1.9.4 1.3.3.4.6.7 1 .9.4.2.8.4 1.3.5s.9.2 1.3.2.8-.1 1.2-.1c.4-.1.7-.2 1-.4.3-.2.6-.4.8-.8 0-.5.1-.9.1-1.4zm-1.3-9c0-.4-.1-.9-.2-1.4-.1-.5-.3-.9-.5-1.4-.2-.4-.5-.8-.9-1.1s-.7-.4-1.1-.4c-.7 0-1.1.2-1.5.7-.4.5-.5 1-.5 1.7 0 .3.1.7.1 1 .1.4.2.7.4 1.1.2.4.4.7.6 1 .2.3.5.5.8.7s.7.3 1 .3c.7 0 1.1-.2 1.5-.7.2-.3.3-.8.3-1.5zm-1.3-5h4.6l-1.5.9h-1.4c.5.3.9.8 1.1 1.3s.4 1.1.4 1.7c0 .5-.1 1-.2 1.4s-.4.7-.6 1c-.2.2-.4.5-.7.7-.2.2-.4.4-.6.7s-.2.4-.2.7c0 .2.1.4.2.5.1.2.3.3.4.5.2.2.4.3.6.5.2.2.4.4.7.6.2.2.4.4.6.7.2.3.3.5.4.9s.2.7.2 1.1c0 1.1-.5 2.1-1.5 2.9-1 .9-2.5 1.4-4.4 1.4-.4 0-.8-.1-1.3-.1s-.9-.2-1.3-.3c-.4-.2-.8-.4-1.1-.6-.3-.2-.6-.5-.8-.9-.2-.3-.3-.7-.3-1.2 0-.4.1-.9.4-1.4.2-.4.5-.8 1-1.1s1-.6 1.5-.8 1.1-.3 1.6-.4c.5-.1 1-.1 1.6-.2-.4-.6-.7-1.1-.7-1.6v-.3c0-.1.1-.2.1-.2 0-.1.1-.1.1-.2.1-.1.1-.2.1-.2-.3.1-.5.1-.7.1-1 0-1.9-.3-2.7-1-.8-.7-1.1-1.5-1.1-2.6 0-1 .3-1.9 1-2.6.7-.7 1.5-1.2 2.5-1.4.7-.4 1.3-.5 2-.5zM24.7 10v1.4H22V14h-1.4v-2.7H18V10h2.7V7.3H22V10h2.7z" fill="#fff"/></svg>